<svg xmlns="http://www.w3.org/2000/svg" xmlns:xlink="http://www.w3.org/1999/xlink" width="2160" zoomAndPan="magnify" viewBox="0 0 1620 1619.99993" height="2160" preserveAspectRatio="xMidYMid meet" version="1.0"><defs><clipPath id="7f11cbeb76"><path d="M 20.714844 21.035156 L 1599.460938 21.035156 L 1599.460938 1599 L 20.714844 1599 Z M 20.714844 21.035156 " clip-rule="nonzero"/></clipPath><clipPath id="9e27814631"><path d="M 810 21.035156 C 374.089844 21.035156 20.714844 374.265625 20.714844 810 C 20.714844 1245.730469 374.089844 1598.964844 810 1598.964844 C 1245.910156 1598.964844 1599.285156 1245.730469 1599.285156 810 C 1599.285156 374.265625 1245.910156 21.035156 810 21.035156 Z M 810 21.035156 " clip-rule="nonzero"/></clipPath><clipPath id="85065898da"><path d="M 551.308594 548.40625 L 1068.808594 548.40625 L 1068.808594 1071.90625 L 551.308594 1071.90625 Z M 551.308594 548.40625 " clip-rule="nonzero"/></clipPath><clipPath id="10cb10f35f"><path d="M 809.996094 548.40625 C 667.128906 548.40625 551.308594 665.523438 551.308594 809.996094 C 551.308594 954.46875 667.128906 1071.585938 809.996094 1071.585938 C 952.863281 1071.585938 1068.679688 954.46875 1068.679688 809.996094 C 1068.679688 665.523438 952.863281 548.40625 809.996094 548.40625 Z M 809.996094 548.40625 " clip-rule="nonzero"/></clipPath><clipPath id="f29903b15f"><path d="M 385.871094 385.195312 L 1234.121094 385.195312 L 1234.121094 1234.945312 L 385.871094 1234.945312 Z M 385.871094 385.195312 " clip-rule="nonzero"/></clipPath><clipPath id="ca0fa286ae"><path d="M 809.996094 385.195312 C 575.757812 385.195312 385.871094 575.386719 385.871094 809.996094 C 385.871094 1044.605469 575.757812 1234.792969 809.996094 1234.792969 C 1044.234375 1234.792969 1234.121094 1044.605469 1234.121094 809.996094 C 1234.121094 575.386719 1044.234375 385.195312 809.996094 385.195312 Z M 809.996094 385.195312 " clip-rule="nonzero"/></clipPath><clipPath id="92d962bfa4"><path d="M 651.558594 651.117188 L 968.808594 651.117188 L 968.808594 969 L 651.558594 969 Z M 651.558594 651.117188 " clip-rule="nonzero"/></clipPath><clipPath id="056381b3d9"><path d="M 809.996094 651.117188 C 722.492188 651.117188 651.558594 722.25 651.558594 810 C 651.558594 897.746094 722.492188 968.878906 809.996094 968.878906 C 897.5 968.878906 968.433594 897.746094 968.433594 810 C 968.433594 722.25 897.5 651.117188 809.996094 651.117188 Z M 809.996094 651.117188 " clip-rule="nonzero"/></clipPath><clipPath id="5ab4ae9597"><path d="M 708.425781 707.570312 L 911.675781 707.570312 L 911.675781 912.320312 L 708.425781 912.320312 Z M 708.425781 707.570312 " clip-rule="nonzero"/></clipPath><clipPath id="7cca68fd21"><path d="M 810 707.570312 C 753.902344 707.570312 708.425781 753.429688 708.425781 810 C 708.425781 866.566406 753.902344 912.425781 810 912.425781 C 866.09375 912.425781 911.570312 866.566406 911.570312 810 C 911.570312 753.429688 866.09375 707.570312 810 707.570312 Z M 810 707.570312 " clip-rule="nonzero"/></clipPath><clipPath id="ee2d94aeb6"><path d="M 748.6875 748.300781 L 871.679688 748.300781 L 871.679688 872 L 748.6875 872 Z M 748.6875 748.300781 " clip-rule="nonzero"/></clipPath><clipPath id="ad5de07c51"><path d="M 810 748.300781 C 776.136719 748.300781 748.6875 775.921875 748.6875 809.996094 C 748.6875 844.066406 776.136719 871.6875 810 871.6875 C 843.863281 871.6875 871.3125 844.066406 871.3125 809.996094 C 871.3125 775.921875 843.863281 748.300781 810 748.300781 Z M 810 748.300781 " clip-rule="nonzero"/></clipPath><clipPath id="56adcb0ffc"><path d="M 767.679688 768.058594 L 852.429688 768.058594 L 852.429688 852 L 767.679688 852 Z M 767.679688 768.058594 " clip-rule="nonzero"/></clipPath><clipPath id="af10343f33"><path d="M 809.996094 768.058594 C 786.625 768.058594 767.679688 786.835938 767.679688 810 C 767.679688 833.160156 786.625 851.9375 809.996094 851.9375 C 833.367188 851.9375 852.3125 833.160156 852.3125 810 C 852.3125 786.835938 833.367188 768.058594 809.996094 768.058594 Z M 809.996094 768.058594 " clip-rule="nonzero"/></clipPath><clipPath id="c70fc279f8"><path d="M 779.964844 779.964844 L 839.964844 779.964844 L 839.964844 839.964844 L 779.964844 839.964844 Z M 779.964844 779.964844 " clip-rule="nonzero"/></clipPath><clipPath id="18651d74f1"><path d="M 810 779.964844 C 793.410156 779.964844 779.964844 793.410156 779.964844 810 C 779.964844 826.585938 793.410156 840.035156 810 840.035156 C 826.585938 840.035156 840.035156 826.585938 840.035156 810 C 840.035156 793.410156 826.585938 779.964844 810 779.964844 Z M 810 779.964844 " clip-rule="nonzero"/></clipPath></defs><g clip-path="url(#7f11cbeb76)"><g clip-path="url(#9e27814631)"><path stroke-linecap="butt" transform="matrix(0.75, 0, 0, 0.75, 20.713803, 21.033745)" fill="none" stroke-linejoin="miter" d="M 1052.381686 0.00188197 C 471.168095 0.00188197 0.00138798 470.97588 0.00138798 1051.955096 C 0.00138798 1632.929104 471.168095 2103.908311 1052.381686 2103.908311 C 1633.595277 2103.908311 2104.761983 1632.929104 2104.761983 1051.955096 C 2104.761983 470.97588 1633.595277 0.00188197 1052.381686 0.00188197 Z M 1052.381686 0.00188197 " stroke="#ffffff" stroke-width="14" stroke-opacity="1" stroke-miterlimit="4"/></g></g><g clip-path="url(#85065898da)"><g clip-path="url(#10cb10f35f)"><path stroke-linecap="butt" transform="matrix(0.75, 0, 0, 0.75, 551.310156, 548.405429)" fill="none" stroke-linejoin="miter" d="M 344.914613 0.00109406 C 154.425013 0.00109406 -0.00208328 156.157357 -0.00208328 348.787582 C -0.00208328 541.417807 154.425013 697.57407 344.914613 697.57407 C 535.404212 697.57407 689.8261 541.417807 689.8261 348.787582 C 689.8261 156.157357 535.404212 0.00109406 344.914613 0.00109406 Z M 344.914613 0.00109406 " stroke="#ffffff" stroke-width="12" stroke-opacity="1" stroke-miterlimit="4"/></g></g><g clip-path="url(#f29903b15f)"><g clip-path="url(#ca0fa286ae)"><path stroke-linecap="butt" transform="matrix(0.75, 0, 0, 0.75, 385.871604, 385.196167)" fill="none" stroke-linejoin="miter" d="M 565.499368 -0.00113974 C 253.181633 -0.00113974 -0.000680131 253.587423 -0.000680131 566.39995 C -0.000680131 879.212477 253.181633 1132.795831 565.499368 1132.795831 C 877.817103 1132.795831 1130.999416 879.212477 1130.999416 566.39995 C 1130.999416 253.587423 877.817103 -0.00113974 565.499368 -0.00113974 Z M 565.499368 -0.00113974 " stroke="#ffffff" stroke-width="14" stroke-opacity="1" stroke-miterlimit="4"/></g></g><g clip-path="url(#92d962bfa4)"><g clip-path="url(#056381b3d9)"><path stroke-linecap="butt" transform="matrix(0.75, 0, 0, 0.75, 651.558844, 651.118701)" fill="none" stroke-linejoin="miter" d="M 211.249685 -0.00201765 C 94.5778 -0.00201765 -0.000333264 94.84174 -0.000333264 211.84175 C -0.000333264 328.836552 94.5778 423.68031 211.249685 423.68031 C 327.92157 423.68031 422.499703 328.836552 422.499703 211.84175 C 422.499703 94.84174 327.92157 -0.00201765 211.249685 -0.00201765 Z M 211.249685 -0.00201765 " stroke="#ffffff" stroke-width="14" stroke-opacity="1" stroke-miterlimit="4"/></g></g><g clip-path="url(#5ab4ae9597)"><g clip-path="url(#7cca68fd21)"><path stroke-linecap="butt" transform="matrix(0.75, 0, 0, 0.75, 708.427127, 707.570848)" fill="none" stroke-linejoin="miter" d="M 135.430509 -0.000713925 C 60.633628 -0.000713925 -0.00179416 61.145125 -0.00179416 136.572214 C -0.00179416 211.994096 60.633628 273.139934 135.430509 273.139934 C 210.222182 273.139934 270.857604 211.994096 270.857604 136.572214 C 270.857604 61.145125 210.222182 -0.000713925 135.430509 -0.000713925 Z M 135.430509 -0.000713925 " stroke="#ffffff" stroke-width="14" stroke-opacity="1" stroke-miterlimit="4"/></g></g><g clip-path="url(#ee2d94aeb6)"><g clip-path="url(#ad5de07c51)"><path stroke-linecap="butt" transform="matrix(0.75, 0, 0, 0.75, 748.685779, 748.300932)" fill="none" stroke-linejoin="miter" d="M 81.752296 -0.000201649 C 36.601253 -0.000201649 0.00229406 36.827924 0.00229406 82.260217 C 0.00229406 127.687301 36.601253 164.515427 81.752296 164.515427 C 126.903338 164.515427 163.502297 127.687301 163.502297 82.260217 C 163.502297 36.827924 126.903338 -0.000201649 81.752296 -0.000201649 Z M 81.752296 -0.000201649 " stroke="#ffffff" stroke-width="14" stroke-opacity="1" stroke-miterlimit="4"/></g></g><g clip-path="url(#56adcb0ffc)"><g clip-path="url(#af10343f33)"><path stroke-linecap="butt" transform="matrix(0.75, 0, 0, 0.75, 767.679402, 768.060443)" fill="none" stroke-linejoin="miter" d="M 56.422261 -0.00246541 C 25.2608 -0.00246541 0.000380877 25.033995 0.000380877 55.919414 C 0.000380877 86.799625 25.2608 111.836086 56.422261 111.836086 C 87.583722 111.836086 112.84414 86.799625 112.84414 55.919414 C 112.84414 25.033995 87.583722 -0.00246541 56.422261 -0.00246541 Z M 56.422261 -0.00246541 " stroke="#ffffff" stroke-width="14" stroke-opacity="1" stroke-miterlimit="4"/></g></g><g clip-path="url(#c70fc279f8)"><g clip-path="url(#18651d74f1)"><path stroke-linecap="butt" transform="matrix(0.75, 0, 0, 0.75, 779.964689, 779.964634)" fill="none" stroke-linejoin="miter" d="M 40.047085 0.000279934 C 17.927291 0.000279934 0.000206601 17.927365 0.000206601 40.047158 C 0.000206601 62.161744 17.927291 80.094037 40.047085 80.094037 C 62.16167 80.094037 80.093963 62.161744 80.093963 40.047158 C 80.093963 17.927365 62.16167 0.000279934 40.047085 0.000279934 Z M 40.047085 0.000279934 " stroke="#ffffff" stroke-width="14" stroke-opacity="1" stroke-miterlimit="4"/></g></g></svg>